<svg width="512" height="512" viewBox="0 0 512 512" fill="none" xmlns="http://www.w3.org/2000/svg" xmlns:xlink="http://www.w3.org/1999/xlink" class="h-full w-full" id="iconWithBackground"><rect id="r4" width="512" height="512" x="0" y="0" rx="35" fill="#ffffff" stroke="#000000" stroke-width="0" stroke-opacity="100%" paint-order="stroke"></rect><defs><linearGradient id="linearGradient" gradientUnits="userSpaceOnUse" gradientTransform="rotate(0)" style="transform-origin: center center;"><stop stop-color="#8e2de2"></stop><stop offset="1" stop-color="#4a00e0"></stop></linearGradient><radialGradient id="glare" cx="0" cy="0" r="1" gradientUnits="userSpaceOnUse" gradientTransform="translate(256) rotate(90) scale(512)"><stop stop-color="white"></stop><stop offset="1" stop-color="white" stop-opacity="0"></stop></radialGradient><clipPath id="clip"><use xlink:href="#r4"></use></clipPath></defs><svg xmlns="http://www.w3.org/2000/svg" xmlns:xlink="http://www.w3.org/1999/xlink" aria-hidden="true" role="img" x="0" y="0" class="iconify iconify--bx" width="512" height="512" viewBox="0 0 24 24" style="color: rgb(0, 0, 0);"><circle cx="18" cy="4" r="2" fill="currentColor"></circle><path fill="currentColor" d="m17.836 12.014l-4.345.725l3.29-4.113a1 1 0 0 0-.227-1.457l-6-4a.999.999 0 0 0-1.262.125l-4 4l1.414 1.414l3.42-3.42l2.584 1.723l-2.681 3.352a5.913 5.913 0 0 0-5.5.752l1.451 1.451A3.972 3.972 0 0 1 8 12c2.206 0 4 1.794 4 4c0 .739-.216 1.425-.566 2.02l1.451 1.451A5.961 5.961 0 0 0 14 16c0-.445-.053-.878-.145-1.295L17 14.181V20h2v-7a.998.998 0 0 0-1.164-.986zM8 20c-2.206 0-4-1.794-4-4c0-.739.216-1.425.566-2.02l-1.451-1.451A5.961 5.961 0 0 0 2 16c0 3.309 2.691 6 6 6c1.294 0 2.49-.416 3.471-1.115l-1.451-1.451A3.972 3.972 0 0 1 8 20z"></path></svg></svg>